# xmcd
#
# Track frame offsets: 
#        150
#        22480
#        36772
#        49702
#        68987
#        91692
#        106632
#        140217
#        158345
#        176125
#        194687
#        207525
#
# Disc length: 2932 seconds
#
# Revision: 0
# Processed by: cddbd v1.5.2PL0 Copyright (c) Steve Scherf et al.
# Submitted via: ExactAudioCopy v0.99pb3
#
DISCID=ac0b720c
DTITLE=Various Artist - Texas Blues Party - Vol. 2
DYEAR=1998
DGENRE=Blues
TTITLE0=Pete Mayes - The Word Is Out
TTITLE1=Pete Mayes - I'm Ready
TTITLE2=Pete Mayes - Texas Jump
TTITLE3=Pete Mayes - Crazy Woman
TTITLE4=Joe Hughes - Cold Cold Feeling
TTITLE5=Curly 'Barefoot' Miller - Kansas City
TTITLE6=Robert Ealey - Rats and Roaches
TTITLE7=Rober Ealey - Picture On The Wall
TTITLE8=Robert Ealey - Shake Your Butt
TTITLE9=Robert Ealey - Milk Cow Blues
TTITLE10=Robert Ealey - Give It Up
TTITLE11=Robin Sylar - Black Widow
EXTD=
EXTT0=
EXTT1=
EXTT2=
EXTT3=
EXTT4=
EXTT5=
EXTT6=
EXTT7=
EXTT8=
EXTT9=
EXTT10=
EXTT11=
PLAYORDER=
